<svg id="Layer_1" data-name="Layer 1" xmlns="http://www.w3.org/2000/svg" viewBox="0 0 319.75 316"><defs><style>.cls-1{fill:#f42525;}.cls-2,.cls-4,.cls-5{fill:#fff;}.cls-3{fill:#222;}.cls-4,.cls-5{stroke:#000;stroke-miterlimit:10;}.cls-4{stroke-width:2px;}.cls-5{stroke-width:4px;}</style></defs><title>Artboard 1</title><path class="cls-1" d="M0,139.5H124s7-21.5,37-21,36.75,20.26,36.75,20.26L320,139.5S299,0,160,0,0,139.5,0,139.5Z"/><path class="cls-2" d="M320.5,176.5h-124s-7,21.5-37,21-38.5-21-38.5-21H.5S21.5,316,160.5,316,320.5,176.5,320.5,176.5Z"/><path class="cls-3" d="M.25,138.76h123s6.5-21,37-22,37.5,22,37.5,22h122v39h-120s-8.5,23-39.5,23.5-37-22.5-37-22.5l-123-1.5Z"/><circle class="cls-4" cx="160.5" cy="158.33" r="27.33"/><circle class="cls-5" cx="160.75" cy="157.75" r="18.25"/></svg>